<svg width="320" height="96" viewBox="0 0 320 96" fill="none" xmlns="http://www.w3.org/2000/svg">
  <defs>
    <linearGradient id="badge-bg" x1="16" y1="12" x2="88" y2="84" gradientUnits="userSpaceOnUse">
      <stop stop-color="#F8FAFC"/>
      <stop offset="1" stop-color="#DCFCE7"/>
    </linearGradient>
  </defs>

  <rect x="1" y="1" width="318" height="94" rx="23" fill="white" stroke="#E2E8F0" stroke-width="2"/>

  <g transform="translate(16 12)">
    <rect width="72" height="72" rx="20" fill="url(#badge-bg)"/>
    <rect x="0.75" y="0.75" width="70.5" height="70.5" rx="19.25" stroke="#BBF7D0" stroke-width="1.5"/>

    <path d="M22 22L18 15M30 19L29 11M40 19L45 11M48 23L54 17" stroke="#FACC15" stroke-width="2.4" stroke-linecap="round"/>

    <path d="M18 54C24 49 24 39 31 35C35 33 38 29 38 24C43 28 47 28 52 26C56 31 58 35 59 41C63 43 65 48 64 54C59 56 55 57 50 58C43 60 37 63 33 67C28 63 23 59 18 54Z" fill="#16A34A" stroke="#0F172A" stroke-width="2.4" stroke-linejoin="round"/>
    <path d="M49 45L61 33" stroke="#0F172A" stroke-width="2.3" stroke-linecap="round"/>
    <path d="M51 33H62.5L66 38.5L58 43L51 33Z" fill="white" stroke="#0F172A" stroke-width="1.6" stroke-linejoin="round"/>
    <path d="M52.5 34L57 38.2L61 34" stroke="#0F172A" stroke-width="1.4" stroke-linecap="round" stroke-linejoin="round"/>
    <path d="M19 33H31L34.5 38.5L25 44L19 33Z" fill="white" stroke="#0F172A" stroke-width="1.6" stroke-linejoin="round"/>
    <path d="M20.5 34L25.5 38.5L30.5 34" stroke="#0F172A" stroke-width="1.4" stroke-linecap="round" stroke-linejoin="round"/>
  </g>

  <g transform="translate(104 20)">
    <text x="0" y="26" fill="#0F172A" font-family="Segoe UI, Arial, sans-serif" font-size="31" font-weight="800" letter-spacing="0.08em">EMSP</text>
    <text x="0" y="44" fill="#334155" font-family="Segoe UI, Arial, sans-serif" font-size="10.5" font-weight="700" letter-spacing="0.14em">ECOLE MULTINATIONALE</text>
    <text x="0" y="58" fill="#334155" font-family="Segoe UI, Arial, sans-serif" font-size="10.5" font-weight="700" letter-spacing="0.14em">SUPERIEURE DES POSTES</text>

    <g transform="translate(0 68)">
      <rect width="24" height="6" rx="3" fill="#009E60"/>
      <rect x="26" width="24" height="6" rx="3" fill="#F59E0B"/>
      <rect x="52" width="24" height="6" rx="3" fill="#DC2626"/>
      <rect x="78" width="24" height="6" rx="3" fill="#16A34A"/>
      <rect x="104" width="24" height="6" rx="3" fill="#EA580C"/>
      <rect x="130" width="24" height="6" rx="3" fill="#15803D"/>
      <rect x="156" width="24" height="6" rx="3" fill="#CA8A04"/>
      <rect x="182" width="24" height="6" rx="3" fill="#0F766E"/>
    </g>

    <text x="214" y="74" fill="#64748B" font-family="Segoe UI, Arial, sans-serif" font-size="9.5" font-weight="700" letter-spacing="0.18em">8 PAYS MEMBRES</text>
  </g>
</svg>
